<svg width="35" height="35" viewBox="0 0 35 35" fill="none" xmlns="http://www.w3.org/2000/svg">
<path fill-rule="evenodd" clip-rule="evenodd" d="M0 17.5C0 7.83502 7.83502 0 17.5 0C27.165 0 35 7.83502 35 17.5C35 27.165 27.165 35 17.5 35C7.83502 35 0 27.165 0 17.5Z" fill="#2A9D8F"/>
<path d="M15.3905 21.2323L24.7987 11.3816C25.3643 10.7895 26.2812 10.7895 26.8467 11.3816C27.4122 11.9737 27.4122 12.9337 26.8467 13.5259L15.3905 25.5208L8.73665 18.554C8.17112 17.9619 8.17112 17.0019 8.73665 16.4097C9.30217 15.8176 10.2191 15.8176 10.7846 16.4097L15.3905 21.2323Z" fill="white"/>
</svg>
