<svg width="211" height="362" viewBox="0 0 211 362" fill="none" xmlns="http://www.w3.org/2000/svg">
<path d="M164.758 79.7007C166.951 77.511 170.471 75.5037 171.957 74.7738C171.8 73.1474 172.175 71.3622 172.903 69.2996C169.208 65.8097 166.982 65.6223 165.714 67.1098C165.505 67.4585 165.296 67.8004 165.088 68.1357C163.874 70.8634 164.155 75.9619 164.758 79.7007Z" fill="#F4F3EE"/>
<path d="M133.545 43.0239C133.149 42.601 132.769 42.2354 132.413 41.9287C131.366 41.3264 130.063 40.7153 128.576 40.1832C118.05 42.728 112.86 55.7991 111.581 62.0166C112.272 62.4571 113.004 63.0262 113.774 63.7482C115.99 57.7525 123.047 45.2136 133.545 43.0239Z" fill="black"/>
<path d="M71.0127 164.322C66.465 164.731 62.1274 166.088 57.8554 168.932C55.6286 171.487 53.981 177.801 65.2055 182.618C65.4954 174.942 68.2124 168.4 71.0127 164.322Z" fill="black"/>
<path d="M59.5 228.054C52.4923 226.758 40.7509 238.565 64.434 265.279L70.99 261.995C68.4708 254.853 67.8637 248.348 67.3622 242.974C66.6013 234.821 66.0834 229.272 59.5 228.054Z" fill="black"/>
<path d="M105.551 284.521C103.117 280.384 100.975 276.509 99.5202 273.762C96.0755 275.79 92.5686 277.728 89.0472 279.568L99.307 290.15C101.727 288.201 103.861 286.301 105.551 284.521Z" fill="black"/>
<path d="M36.9584 79.1541C39.5382 80.249 45.2461 83.0956 47.439 85.7233C48.3526 81.8912 49.7413 73.0229 47.9872 68.2055C44.0398 63.8261 38.6675 70.4918 36.4748 74.3721C36.8711 76.1523 37.058 77.7525 36.9584 79.1541Z" fill="#F4F3EE"/>
<path d="M133.545 126.232C139.929 126.78 159.057 124.809 184.494 112.547C184.696 108.919 181.228 104.919 177.105 100.164C172.27 94.5883 166.534 87.9736 164.758 79.7007C164.155 75.9619 163.874 70.8634 165.088 68.1357C155.999 82.7553 147.427 84.7936 139.64 86.6451C136.951 87.2845 134.356 87.9016 131.865 89.0069C130.769 89.5549 127.698 91.9645 124.19 97.2192C117.173 107.73 103.906 102.145 98.9717 95.5769C93.527 88.9041 88.1941 88.8136 81.9641 88.7079C74.3937 88.5794 65.4988 88.4285 53.4694 76.4169C52.0075 74.5922 48.8644 70.3952 47.9872 68.2055C49.7413 73.0229 48.3526 81.8912 47.439 85.7233C46.9311 88.597 44.7734 91.699 42.189 95.4144C38.0779 101.325 32.8873 108.787 31.5408 119.351C33.516 120.256 35.5428 121.091 37.6044 121.853C52.3108 127.293 68.785 129.036 80.8807 125.906L58.4413 167.837L57.8554 168.932C62.1274 166.088 66.465 164.731 71.0127 164.322C78.2151 163.675 85.7152 165.357 94.2956 167.282C104.491 169.57 116.211 172.2 130.769 171.669L131.219 171.653C135.329 171.504 140.579 171.314 145.022 170.574C144.584 164.443 137.188 138.458 133.545 126.232Z" fill="black"/>
<path d="M33.7337 273.648C37.2057 274.508 42.8341 279.24 37.5712 291.283C39.9242 296.943 39.9402 302.061 39.9559 307.077C39.9805 314.916 40.0042 322.505 48.9477 331.518C53.1396 326.75 55.7097 321.768 57.2012 316.738C57.8492 314.552 58.2935 312.358 58.5788 310.168C58.8894 307.785 59.0115 305.407 59.0025 303.052C58.9899 299.739 58.718 296.472 58.3467 293.299C58.335 293.2 58.3232 293.1 58.3113 293.001C58.3049 292.947 58.2985 292.893 58.292 292.84C58.083 291.102 57.8463 289.394 57.6084 287.724C54.9868 286.471 52.3958 283.428 49.427 279.94C47.2056 277.331 44.7726 274.473 41.957 271.931C39.0963 272.569 36.3009 273.147 33.7337 273.648Z" fill="black"/>
<path d="M56.7589 268.091C52.2133 269.499 46.9844 270.809 41.957 271.931C44.7726 274.473 47.2056 277.331 49.427 279.94C52.3958 283.428 54.9868 286.471 57.6084 287.724C57.5469 287.292 57.4852 286.862 57.424 286.435C56.414 279.392 55.507 273.067 56.7589 268.091Z" fill="#F4F3EE"/>
<path d="M101.713 318.38C101.264 317.633 100.797 316.906 100.32 316.19C98.1075 315.959 94.793 313.83 90.783 311.254C87.2081 308.958 83.0803 306.307 78.6878 304.328C76.2448 305.831 73.8739 307.244 71.672 308.526C74.9243 308.161 81.4289 310.935 81.4289 324.949C86.2855 328.596 87.3833 332.716 88.5864 337.233C90.2731 343.565 92.1669 350.674 104.915 358.342C107.4 352.461 108.172 346.434 107.956 340.824C107.875 338.751 107.66 336.734 107.347 334.803C107.002 332.68 106.538 330.66 106.004 328.781C104.753 324.382 103.115 320.754 101.713 318.38Z" fill="black"/>
<path d="M66.8176 289.914L58.4413 267.555C57.8925 267.735 57.3311 267.914 56.7589 268.091C55.507 273.067 56.414 279.392 57.424 286.435C57.4852 286.862 57.5469 287.292 57.6084 287.724C57.8463 289.394 58.083 291.102 58.292 292.84L58.3113 293.001C58.3232 293.1 58.335 293.2 58.3467 293.299C60.9449 292.333 63.7153 291.192 66.465 290.059L66.8176 289.914Z" fill="black"/>
<path d="M73.7538 286.944L63.8858 265.523C62.8007 265.995 61.5955 266.462 60.2983 266.922L69.4369 288.819C70.8639 288.214 72.304 287.589 73.7538 286.944Z" fill="black"/>
<path fill-rule="evenodd" clip-rule="evenodd" d="M95.6637 56.645C89.1142 66.1905 86.1004 70.5828 75.3982 69.3004C61.6927 67.6581 54.0176 74.2276 53.4694 76.4169C65.4988 88.4285 74.3937 88.5794 81.9641 88.7079C88.1941 88.8136 93.527 88.9041 98.9717 95.5769C103.906 102.145 117.173 107.73 124.19 97.2192C124.19 88.0224 125.286 83.3234 125.835 82.1234C131.046 84.712 137.514 84.4716 140.088 72.5846C141.143 67.7127 141.233 63.3126 140.734 59.4467C139.72 51.5924 136.274 45.9434 133.545 43.0239C123.047 45.2136 115.99 57.7525 113.774 63.7482C113.004 63.0262 112.272 62.4571 111.581 62.0166C112.86 55.7991 118.05 42.728 128.576 40.1832C121.5 37.6523 110.234 36.9089 102.261 47.4029C99.6181 50.8818 97.5017 53.9663 95.6637 56.645ZM36.9584 79.1541C39.5382 80.249 45.2461 83.0956 47.439 85.7233C46.9311 88.597 44.7734 91.699 42.189 95.4144C38.0779 101.325 32.8873 108.787 31.5408 119.351C26.0958 116.858 21.0435 113.837 16.7386 110.357C-1.68158 95.4675 -0.438948 45.7611 2.4849 22.7691C2.4849 18.9371 3.36205 10.3973 6.87066 6.89374C8.65055 5.11643 10.2235 5.04843 11.4607 5.67492C13.099 4.44059 16.1307 3.29591 17.8353 6.04771C19.2651 5.45572 21.8809 5.16105 23.1615 7.44117C29.1767 6.56528 29.4266 11.2258 28.7997 13.6656C29.042 14.1373 29.2272 14.6237 29.3477 15.1051C29.8018 17.8256 27.9993 21.2972 23.3173 25.5199C23.5789 39.0984 28.3354 51.5579 32.1645 61.588C34.031 66.4772 35.6771 70.7892 36.4748 74.3721C36.8711 76.1523 37.058 77.7525 36.9584 79.1541ZM58.4413 167.837C27.3325 159.954 31.5881 133.897 37.6044 121.853C52.3108 127.293 68.785 129.036 80.8807 125.906L58.4413 167.837ZM65.2055 182.618C65.4954 174.942 68.2124 168.4 71.0127 164.322C78.2151 163.675 85.7152 165.357 94.2956 167.282C104.491 169.57 116.211 172.2 130.769 171.669C193.235 227.447 156.983 274.961 119.804 304.965C117.975 306.441 116.144 307.874 114.322 309.264L97.8755 291.283C98.3626 290.904 98.8401 290.526 99.307 290.15C101.727 288.201 103.861 286.301 105.551 284.521C103.117 280.384 100.975 276.509 99.5202 273.762C96.0755 275.79 92.5686 277.728 89.0472 279.568C87.2404 280.512 85.4297 281.43 83.6218 282.322C80.3104 283.955 77.0078 285.498 73.7538 286.944L63.8858 265.523C64.0721 265.442 64.2549 265.361 64.434 265.279L70.99 261.995C68.4708 254.853 67.8637 248.348 67.3622 242.974C66.6013 234.821 66.0834 229.272 59.5 228.054C64.2513 227.872 76.4949 225.974 87.4593 219.843C69.6624 207.821 64.7764 193.977 65.2055 182.618ZM94.5862 293.762C94.0948 294.121 93.5971 294.481 93.0942 294.84L108.84 313.344C109.534 312.84 110.232 312.329 110.932 311.811L94.5862 293.762ZM98.9799 314.217C99.4296 314.873 99.8787 315.527 100.32 316.19C98.1075 315.959 94.793 313.83 90.783 311.254C87.2081 308.958 83.0803 306.307 78.6878 304.328C83.0263 301.66 87.5925 298.712 91.8451 295.725C92.2732 304.44 95.6438 309.353 98.9799 314.217ZM60.2983 266.922C59.6981 267.134 59.0782 267.345 58.4413 267.555L66.8176 289.914C67.6852 289.556 68.5585 289.191 69.4369 288.819L60.2983 266.922ZM88.5864 337.233C90.2731 343.565 92.1669 350.674 104.915 358.342C104.606 359.075 104.27 359.805 103.906 360.532C93.8331 357.179 85.6792 344.513 77.679 332.085C73.1393 325.033 68.6491 318.058 63.8858 312.906C66.0099 311.76 68.6856 310.265 71.672 308.526C74.9243 308.161 81.4289 310.935 81.4289 324.949C86.2855 328.596 87.3833 332.716 88.5864 337.233ZM33.7337 273.648C30.5323 274.273 27.6859 274.778 25.5104 275.133C27.2549 280.522 28.8251 287.255 30.4519 294.231C34.4485 311.37 38.7867 329.973 46.891 333.708C47.6164 332.983 48.3013 332.253 48.9477 331.518C40.0042 322.505 39.9805 314.916 39.9559 307.077C39.9402 302.061 39.9242 296.943 37.5712 291.283C42.8341 279.24 37.2057 274.508 33.7337 273.648ZM208.616 29.3378C211.174 51.9647 209.932 100.284 184.494 112.547C184.696 108.919 181.228 104.919 177.105 100.164C172.27 94.5883 166.534 87.9736 164.758 79.7007C166.951 77.511 170.471 75.5037 171.957 74.7738C171.8 73.1474 172.175 71.3622 172.903 69.2996C173.599 67.325 174.618 65.0962 175.801 62.509C179.646 54.1008 185.221 41.9075 187.079 22.3552C179.417 15.2058 179.867 10.5861 181.205 9.08338C181.375 8.97878 181.559 8.86948 181.753 8.75752C181.314 3.68012 185.121 3.20956 187.079 3.60895C188.408 1.0347 191.674 1.31745 193.531 1.96601C195.25 0.494357 198.046 0.918583 199.032 2.40256C200.068 2.0699 201.427 2.2831 203.134 3.60895C207.081 6.67467 208.433 22.0389 208.616 29.3378ZM165.714 67.1098C165.505 67.4585 165.296 67.8004 165.088 68.1357C165.264 67.7401 165.471 67.3943 165.714 67.1098Z" fill="#F4F3EE"/>
<path d="M101.713 318.38C104.031 316.785 106.416 315.105 108.84 313.344L93.0942 294.84C92.6812 295.136 92.2647 295.431 91.8451 295.725C92.2732 304.44 95.6438 309.353 98.9799 314.217C99.4296 314.873 99.8787 315.527 100.32 316.19C100.797 316.906 101.264 317.633 101.713 318.38Z" fill="black"/>
<path d="M114.322 309.264L97.8755 291.283C96.8199 292.105 95.7197 292.933 94.5862 293.762L110.932 311.811C112.057 310.979 113.188 310.13 114.322 309.264Z" fill="black"/>
<path d="M120.901 78.6063C122.215 79.8702 123.942 81.1834 125.835 82.1234M53.4694 76.4169C54.0176 74.2276 61.6927 67.6581 75.3982 69.3004C86.1004 70.5828 89.1142 66.1905 95.6637 56.645C97.5017 53.9663 99.6181 50.8818 102.261 47.4029C110.234 36.9089 121.5 37.6523 128.576 40.1832M53.4694 76.4169C52.0075 74.5922 48.8644 70.3952 47.9872 68.2055M53.4694 76.4169C65.4988 88.4285 74.3937 88.5794 81.9641 88.7079C88.1941 88.8136 93.527 88.9041 98.9717 95.5769M125.835 82.1234C131.046 84.712 137.514 84.4716 140.088 72.5846C141.143 67.7127 141.233 63.3126 140.734 59.4467M125.835 82.1234C125.286 83.3234 124.19 88.0224 124.19 97.2192M124.19 97.2192C127.698 91.9645 130.769 89.5549 131.865 89.0069C134.356 87.9016 136.951 87.2845 139.64 86.6451C147.427 84.7936 155.999 82.7553 165.088 68.1357M124.19 97.2192C117.173 107.73 103.906 102.145 98.9717 95.5769M140.734 59.4467C139.72 51.5924 136.274 45.9434 133.545 43.0239M140.734 59.4467C140.385 59.1818 139.98 58.8716 139.54 58.5307C138.635 57.8283 137.582 56.9958 136.564 56.1622C134.673 54.6133 132.901 53.0603 132.413 52.3301C130.889 53.9697 129.199 55.5414 127.479 56.9992C126.384 57.928 125.276 58.8105 124.19 59.6348C120.607 62.3553 117.268 64.4425 115.418 65.4684C114.853 64.8169 114.304 64.2462 113.774 63.7482M98.9717 95.5769C104.235 92.0734 109.571 78.7889 111.581 72.5846C108.109 71.3074 101.822 67.4391 104.454 62.1838C105.422 60.9406 107.941 59.6973 111.581 62.0166M113.774 63.7482C115.99 57.7525 123.047 45.2136 133.545 43.0239M113.774 63.7482C113.004 63.0262 112.272 62.4571 111.581 62.0166M133.545 43.0239C133.149 42.601 132.769 42.2354 132.413 41.9287C131.366 41.3264 130.063 40.7153 128.576 40.1832M111.581 62.0166C112.86 55.7991 118.05 42.728 128.576 40.1832M107.195 64.3735C108.474 64.7385 111.142 66.0158 111.581 68.2055M193.814 17.2948C193.02 16.2757 191.523 14.5819 189.976 13.3387M189.428 24.4112C188.571 23.7044 187.79 23.0189 187.079 22.3552M201.489 7.4411C201.124 9.99571 199.844 14.8859 197.651 14.0101M197.651 14.0101V17.8418M197.651 14.0101C197.033 13.7629 196.632 13.1611 196.388 12.3671M184.494 112.547C209.932 100.284 211.174 51.9647 208.616 29.3378C208.433 22.0389 207.081 6.67467 203.134 3.60895C201.427 2.2831 200.068 2.0699 199.032 2.40256M184.494 112.547C159.057 124.809 139.929 126.78 133.545 126.232M184.494 112.547C184.696 108.919 181.228 104.919 177.105 100.164C172.27 94.5883 166.534 87.9736 164.758 79.7007M133.545 126.232C137.188 138.458 144.584 164.443 145.022 170.574C140.579 171.314 135.329 171.504 131.219 171.653M133.545 126.232L131.865 120.759M199.032 2.40256C197.672 2.83909 196.866 4.2156 196.555 5.25123C196.162 7.08494 195.768 10.3477 196.388 12.3671M199.032 2.40256C198.046 0.918583 195.25 0.494357 193.531 1.96601M196.388 12.3671C196.255 13.681 195.347 14.0098 194.91 14.0101C194.036 13.6826 193.393 13.0988 192.929 12.3671M193.531 1.96601C192.842 2.55593 192.326 3.45048 192.169 4.70353C191.758 6.62148 191.532 10.1642 192.929 12.3671M193.531 1.96601C191.674 1.31745 188.408 1.0347 187.079 3.60895M186.495 6.72611C187.882 6.39865 189.045 6.48515 189.428 7.4411C190.305 9.63081 188.332 11.2731 187.235 11.8205C188.067 11.9867 189.031 12.5785 189.976 13.3387M186.495 6.72611C186.46 5.39119 186.684 4.37392 187.079 3.60895M186.495 6.72611C184.933 7.09499 183.087 7.98914 181.753 8.75752M187.079 3.60895C185.121 3.20956 181.314 3.68012 181.753 8.75752M181.753 8.75752C181.559 8.86948 181.375 8.97878 181.205 9.08338C179.867 10.5861 179.417 15.2058 187.079 22.3552M192.929 12.3671C192.675 13.305 191.731 14.8123 189.976 13.3387M187.079 22.3552C185.221 41.9075 179.646 54.1008 175.801 62.509C174.618 65.0962 173.599 67.325 172.903 69.2996M174.626 79.7007C172.94 78.1448 172.129 76.5545 171.957 74.7738M171.957 74.7738C170.471 75.5037 166.951 77.511 164.758 79.7007M171.957 74.7738C171.8 73.1474 172.175 71.3622 172.903 69.2996M164.758 79.7007C164.155 75.9619 163.874 70.8634 165.088 68.1357M172.903 69.2996C169.208 65.8097 166.982 65.6223 165.714 67.1098M165.714 67.1098C165.471 67.3943 165.264 67.7401 165.088 68.1357M165.714 67.1098C165.505 67.4585 165.296 67.8004 165.088 68.1357M47.9872 68.2055C49.7413 73.0229 48.3526 81.8912 47.439 85.7233M47.9872 68.2055C44.0398 63.8261 38.6675 70.4918 36.4748 74.3721M16.7386 20.5794C17.4539 19.8652 18.9158 18.5452 20.5764 17.349M20.028 28.2434C21.2519 27.3033 22.3465 26.3954 23.3173 25.5199M34.2817 84.081C36.0041 82.9344 36.8079 81.2707 36.9584 79.1541M23.3173 25.5199C27.9993 21.2972 29.8018 17.8256 29.3477 15.1051C29.2272 14.6237 29.042 14.1373 28.7997 13.6656M23.3173 25.5199C23.5789 39.0984 28.3354 51.5579 32.1645 61.588C34.031 66.4772 35.6771 70.7892 36.4748 74.3721M36.9584 79.1541C39.5382 80.249 45.2461 83.0956 47.439 85.7233M36.9584 79.1541C37.058 77.7525 36.8711 76.1523 36.4748 74.3721M47.439 85.7233C46.9311 88.597 44.7734 91.699 42.189 95.4144C38.0779 101.325 32.8873 108.787 31.5408 119.351M8.51532 10.7257C8.69806 12.368 9.72141 15.8715 12.3529 16.7474M12.3529 16.7474L12.3531 21.6743M12.3529 16.7474C13.1637 17.0173 13.6831 16.6358 13.9975 15.8879M95.6826 116.379C92.6732 121.102 87.416 124.215 80.8807 125.906M31.5408 119.351C26.0958 116.858 21.0435 113.837 16.7386 110.357C-1.68158 95.4675 -0.438948 45.7611 2.4849 22.7691C2.4849 18.9371 3.36205 10.3973 6.87066 6.89374C8.65055 5.11643 10.2235 5.04843 11.4607 5.67492M31.5408 119.351C33.516 120.256 35.5428 121.091 37.6044 121.853M11.4607 5.67492C12.6624 6.28341 13.5473 7.54704 13.9975 8.53602C14.3768 10.6823 14.7036 14.2086 13.9975 15.8879M11.4607 5.67492C13.099 4.44059 16.1307 3.29591 17.8353 6.04771M13.9975 15.8879C14.6305 16.3398 16.5429 17.1039 17.8353 15.9832M17.8353 6.04771C18.3416 6.86508 18.7308 8.02621 18.9317 9.63088C19.3951 13.3326 18.7813 15.1628 17.8353 15.9832M17.8353 6.04771C19.2651 5.45572 21.8809 5.16105 23.1615 7.44117M23.8657 9.98899C23.1723 9.90866 22.437 9.96023 21.6726 10.1783C20.7589 10.9082 19.8087 13.0249 23.3173 15.6526C22.4025 16.1093 21.4612 16.7116 20.5764 17.349M23.8657 9.98899C26.0794 10.2455 27.8651 11.8464 28.7997 13.6656M23.8657 9.98899C23.7703 8.90806 23.5175 8.0751 23.1615 7.44117M28.7997 13.6656C29.4266 11.2258 29.1767 6.56528 23.1615 7.44117M17.8353 15.9832C18.2008 16.8021 19.2607 18.2217 20.5764 17.349M133.51 73.6799C132.413 74.2273 130.111 74.4463 129.672 70.9427M80.8807 125.906C68.785 129.036 52.3108 127.293 37.6044 121.853M80.8807 125.906L58.4413 167.837M57.8554 168.932L58.4413 167.837M57.8554 168.932C62.1274 166.088 66.465 164.731 71.0127 164.322M57.8554 168.932C55.6286 171.487 53.981 177.801 65.2055 182.618M37.6044 121.853C31.5881 133.897 27.3325 159.954 58.4413 167.837M71.0127 164.322C68.2124 168.4 65.4954 174.942 65.2055 182.618M71.0127 164.322C78.2151 163.675 85.7152 165.357 94.2956 167.282C104.491 169.57 116.211 172.2 130.769 171.669M87.4593 219.843C69.6624 207.821 64.7764 193.977 65.2055 182.618M87.4593 219.843C76.4949 225.974 64.2513 227.872 59.5 228.054M87.4593 219.843C88.775 219.136 101.713 213.274 108.292 205.062M58.3467 293.299C60.9449 292.333 63.7153 291.192 66.465 290.059M58.3467 293.299C58.718 296.472 58.9899 299.739 59.0025 303.052M58.3467 293.299C58.335 293.2 58.3232 293.1 58.3113 293.001M117.063 178.238C172.16 213.466 140.17 249.84 99.5202 273.762M101.713 318.38C104.031 316.785 106.416 315.105 108.84 313.344M101.713 318.38C101.264 317.633 100.797 316.907 100.32 316.19M101.713 318.38C103.115 320.753 104.753 324.382 106.004 328.781M130.769 171.669C193.235 227.447 156.983 274.961 119.804 304.965M130.769 171.669L131.219 171.653M130.769 171.669C130.917 171.664 131.068 171.658 131.219 171.653M99.5202 273.762C100.975 276.509 103.117 280.384 105.551 284.521M99.5202 273.762C96.0755 275.79 92.5686 277.728 89.0472 279.568M119.804 304.965C115.789 301.097 110.149 292.339 105.551 284.521M119.804 304.965C117.975 306.441 116.144 307.874 114.322 309.264M105.551 284.521C103.861 286.301 101.727 288.201 99.307 290.15M59.5 228.054C52.4923 226.758 40.7509 238.565 64.434 265.279M59.5 228.054C66.0834 229.272 66.6013 234.821 67.3622 242.974C67.8637 248.348 68.4708 254.853 70.99 261.995M83.6218 282.322C77.0225 275.273 73.2422 268.38 70.99 261.995M83.6218 282.322C80.3104 283.955 77.0078 285.498 73.7538 286.944M83.6218 282.322C85.4298 281.43 87.2404 280.512 89.0472 279.568M64.434 265.279L70.99 261.995M64.434 265.279C64.2549 265.361 64.0721 265.442 63.8858 265.523M63.8858 265.523L73.7538 286.944M63.8858 265.523C62.8007 265.995 61.5955 266.462 60.2983 266.922M73.7538 286.944C72.304 287.589 70.8639 288.214 69.4369 288.819M69.4369 288.819L60.2983 266.922M69.4369 288.819C68.5585 289.191 67.6852 289.556 66.8176 289.914M60.2983 266.922C59.6981 267.134 59.0782 267.345 58.4413 267.555M58.4413 267.555L66.8176 289.914M58.4413 267.555C57.8925 267.735 57.3311 267.914 56.7589 268.091M66.8176 289.914L66.465 290.059M66.8176 289.914C66.7001 289.962 66.5825 290.01 66.465 290.059M97.8755 291.283L114.322 309.264M97.8755 291.283C96.8199 292.105 95.7197 292.933 94.5862 293.762M97.8755 291.283C98.3626 290.904 98.8401 290.526 99.307 290.15M114.322 309.264C113.188 310.13 112.057 310.979 110.932 311.811M110.932 311.811L94.5862 293.762M110.932 311.811C110.232 312.329 109.534 312.84 108.84 313.344M94.5862 293.762C94.0948 294.121 93.5971 294.481 93.0942 294.84M93.0942 294.84L108.84 313.344M93.0942 294.84C92.6812 295.136 92.2647 295.431 91.8451 295.725M56.7589 268.091C52.2133 269.499 46.9844 270.809 41.957 271.931M56.7589 268.091C55.507 273.067 56.414 279.392 57.424 286.435C57.4852 286.862 57.5469 287.292 57.6084 287.724M33.7337 273.648C30.5323 274.273 27.6859 274.778 25.5104 275.133C27.2549 280.522 28.8251 287.255 30.4519 294.231C34.4485 311.37 38.7867 329.973 46.891 333.708C47.6164 332.983 48.3013 332.253 48.9477 331.518M33.7337 273.648C37.2057 274.508 42.8341 279.24 37.5712 291.283C39.9242 296.943 39.9402 302.061 39.9559 307.077C39.9805 314.916 40.0042 322.505 48.9477 331.518M33.7337 273.648C36.3009 273.147 39.0963 272.569 41.957 271.931M48.9477 331.518C53.1396 326.75 55.7097 321.768 57.2012 316.738M41.957 271.931C44.7726 274.473 47.2056 277.331 49.427 279.94C52.3958 283.428 54.9868 286.471 57.6084 287.724M57.6084 287.724C57.8463 289.394 58.083 291.102 58.292 292.84M47.9874 295.935C50.5796 296.665 56.4116 299.11 59.0025 303.052M59.0025 303.052C59.0115 305.407 58.8894 307.785 58.5788 310.168M59.0025 303.052C58.9895 299.635 58.7007 296.267 58.3113 293.001M47.4392 301.957C50.1144 302.869 56.0875 305.789 58.5788 310.168M58.5788 310.168C58.2935 312.358 57.8492 314.552 57.2012 316.738M46.891 308.526C49.7273 309.439 55.7602 312.358 57.2012 316.738M91.8451 295.725C87.5925 298.712 83.0263 301.66 78.6878 304.328M91.8451 295.725C92.2732 304.44 95.6438 309.353 98.9799 314.217C99.4296 314.873 99.8787 315.527 100.32 316.19M78.6878 304.328C76.2448 305.831 73.8739 307.244 71.672 308.526M78.6878 304.328C83.0803 306.307 87.2081 308.958 90.783 311.254C94.793 313.83 98.1075 315.959 100.32 316.19M104.915 358.342C104.606 359.075 104.27 359.805 103.906 360.532C93.8331 357.179 85.6792 344.513 77.679 332.085C73.1393 325.033 68.6491 318.058 63.8858 312.906C66.0099 311.76 68.6856 310.265 71.672 308.526M104.915 358.342C107.4 352.461 108.172 346.434 107.956 340.824M104.915 358.342C92.1669 350.674 90.2731 343.565 88.5864 337.233C87.3833 332.716 86.2855 328.596 81.4289 324.949C81.4289 310.935 74.9243 308.161 71.672 308.526M92.3933 324.949C95.4364 324.766 102.419 325.277 106.004 328.781M106.004 328.781C106.538 330.66 107.002 332.68 107.347 334.803M94.0379 330.971C96.6972 330.788 103.082 331.299 107.347 334.803M107.347 334.803C107.66 336.734 107.875 338.751 107.956 340.824M96.2308 336.992C99.1468 336.81 105.574 337.321 107.956 340.824M135.154 69.3004C136.616 69.1502 138.553 67.9544 134.606 64.3735M89.0472 279.568L99.307 290.15M58.292 292.84L58.3113 293.001M58.292 292.84C58.2985 292.893 58.3049 292.947 58.3113 293.001M131.317 63.7482V64.921H127.479L131.317 63.7482ZM136.251 62.7313L138.992 62.0166L136.799 63.2787L136.251 62.7313ZM76.3902 317.109L76.7271 318.639C77.1794 320.693 74.6671 322.063 73.1859 320.57L72.0509 319.426C71.3728 318.743 70.903 317.881 70.6964 316.94L70.6214 316.599C70.1727 314.557 72.381 312.966 74.1763 314.038V314.038C75.3061 314.713 76.1072 315.824 76.3902 317.109ZM34.9159 279.965L35.2422 283.766C35.4651 286.363 31.8693 287.255 30.8526 284.855L30.7399 284.59C30.5449 284.129 30.4444 283.634 30.4444 283.134V280.156C30.4444 278.311 32.5501 277.258 34.0269 278.364V278.364C34.5379 278.746 34.8613 279.329 34.9159 279.965Z" stroke="black" stroke-linecap="round" stroke-linejoin="round"/>
</svg>
