<svg width="287" height="391" viewBox="0 0 287 391" fill="none" xmlns="http://www.w3.org/2000/svg">
<path d="M192.642 361.963C171.192 367.889 146.047 367.809 128.262 349.893C110.438 331.938 99.6742 295.757 107.836 228.624C109.666 213.576 105.199 202.377 97.5103 193.635C89.8614 184.939 79.0546 178.708 68.2537 173.463C64.4454 171.613 60.6527 169.892 56.9898 168.229C50.1799 165.138 43.8185 162.251 38.6394 159.123C30.6655 154.306 26.0548 149.239 26.777 142.527C28.9232 122.582 36.5839 96.5558 46.8192 74.6614C51.9354 63.7172 57.6779 53.8426 63.6684 46.2914C69.681 38.7123 75.8437 33.601 81.766 31.9649C97.1777 27.7071 119.88 24.3567 140.687 24.3711C151.09 24.3782 160.979 25.2266 169.228 27.2045C177.504 29.1887 183.987 32.2765 187.741 36.6513C192.613 42.3282 195.623 51.3268 197.549 62.5658C199.47 73.776 200.288 87.0514 200.892 101.155C201.048 104.797 201.19 108.494 201.333 112.223C202.294 137.31 203.312 163.88 209.148 185.006C215.454 207.83 231.26 228.281 245.644 246.892C246.563 248.081 247.477 249.263 248.382 250.438C255.94 260.249 262.892 269.537 267.688 278.45C272.485 287.363 275.059 295.783 274.008 303.871C273.192 310.157 269.007 316.622 262.695 322.918C256.402 329.194 248.105 335.193 239.285 340.555C221.637 351.283 202.057 359.362 192.642 361.963Z" stroke="#F4F3EE" stroke-width="2"/>
<circle cx="189.694" cy="147.694" r="46.6936" stroke="#F4F3EE" stroke-width="2"/>
<circle cx="171.74" cy="243.751" r="33.7455" transform="rotate(41.2251 171.74 243.751)" stroke="#F4F3EE" stroke-width="2"/>
</svg>
