<svg width="492" height="318" viewBox="0 0 492 318" fill="none" xmlns="http://www.w3.org/2000/svg">
<g filter="url(#filter0_d_453_14043)">
<path d="M97.7727 61.042C97.7727 61.042 104.765 56.6718 108.172 50.5537C108.028 50.4444 107.883 50.3323 107.739 50.2177C104.503 47.6366 101.618 43.7362 104.765 40.0653C107.035 37.4168 109.578 37.2081 111.757 37.9435C122.246 29.9531 131.087 18.3693 134.196 13.5763C129.757 9.76578 121.858 6.51052 110.009 9.47388C95.1506 13.1899 95.1506 29.5772 89.0324 33.0731C81.7721 33.3644 67.332 37.2683 67.6536 50.5537C67.7877 54.0497 69.4544 61.5663 75.0481 63.664C86.2357 55.2733 94.8593 58.4199 97.7727 61.042Z" fill="#0C0C0C"/>
<path d="M131.86 37.4433C137.104 38.3173 136.23 33.0731 143.222 33.0731C147.884 30.7424 156.158 24.6824 151.962 19.0887C147.767 13.4949 140.891 16.1752 137.978 18.2146C136.836 22.7815 132.363 27.9008 127.49 32.2759C127.49 32.9751 131.568 33.0731 133.608 33.0731C133.608 34.4716 130.112 37.1519 131.86 37.4433Z" fill="#0C0C0C"/>
<path d="M391.446 36.5692C392.903 33.0731 397.215 27.3045 402.808 32.199C407.988 36.7315 403.075 40.1148 399.312 41.5159C399.813 43.1818 400.999 45.1226 402.463 47.0575C402.463 47.0575 407.902 47.9309 410.675 44.4354C414.171 40.0286 410.675 34.8211 410.675 34.8211C410.675 34.8211 414.801 30.2569 414.171 26.9549C412.836 19.962 406.304 20.8367 406.304 20.8367C406.304 20.8367 409.801 15.5932 407.179 11.2224C404.556 6.85158 397.564 9.47432 397.564 9.47432C397.564 9.47432 397.564 2.48144 391.446 1.60808C384.454 0.60995 381.832 5.10419 381.832 5.10419C381.832 5.10419 379.704 -0.887341 372.217 1.60808C366.973 3.35609 368.721 9.47432 368.721 9.47432C364.642 8.6003 357.465 8.72353 355.611 14.7185C353.756 20.7134 357.883 27.4793 366.973 26.0808C370.469 24.6824 376.005 27.2462 378.336 28.7029L377.462 26.0808C381.657 25.3816 386.202 33.0731 391.446 36.5692Z" fill="#0C0C0C"/>
<path d="M457.872 151.94C457.141 151.322 455.676 150.492 453.502 149.814L453.288 153.688C455.914 152.989 457.438 152.232 457.872 151.94Z" fill="black"/>
<path d="M467.486 103.869C465.388 102.936 462.748 102.178 459.62 101.819C460.374 103.272 461.316 105.302 462.242 107.64C465.039 106.462 466.904 104.635 467.486 103.869Z" fill="#0C0C0C"/>
<path d="M350.21 98.6251C346.45 97.4962 343.437 97.4072 341.626 97.751C341.544 99.2077 342.453 102.82 346.747 105.617C348.005 102.692 349.353 99.8035 350.21 98.6251Z" fill="#0C0C0C"/>
<path d="M371.433 32.5199C370.959 32.3619 370.469 32.7148 370.469 33.2145V33.2145C370.469 33.6189 370.797 33.9467 371.202 33.9467H375.713L371.433 32.5199Z" fill="black"/>
<path d="M139.574 41.4523C140.046 41.2166 140.6 41.5594 140.6 42.0864V42.0864C140.6 42.433 140.35 42.7288 140.008 42.7857L135.356 43.561L139.574 41.4523Z" fill="black"/>
<path d="M131.725 120.476C129.41 123.81 128.462 126.955 128.364 129.216C129.804 129.507 133.475 129.566 136.642 127.468C135.084 125.465 133.446 123.151 131.725 120.476Z" fill="#0C0C0C"/>
<path d="M47.0793 95.6991C42.9207 94.276 38.3061 93.3809 33.0948 93.3809C33.0948 95.545 34.6681 101.059 40.9611 105.804C42.4049 102.265 44.3885 98.7603 47.0793 95.6991Z" fill="#0C0C0C"/>
<path d="M444.762 292.283C463.116 283.045 460.494 267.312 469.234 262.068C468.535 252.279 474.679 248.666 477.839 248.083C475.88 247.006 473.764 245.737 471.545 244.326C468.499 249.012 459.62 247.209 452.09 253.328C451.001 255.257 449.835 257.169 448.698 259.115C447.162 261.743 445.678 264.433 444.507 267.312C443.825 268.988 443.249 270.728 442.83 272.556C442.422 274.334 442.164 276.197 442.101 278.166C441.968 282.323 442.707 286.956 444.762 292.283Z" fill="#0C0C0C"/>
<path d="M456.998 234.268C457.895 241.682 455.332 247.583 452.09 253.328C459.62 247.209 468.499 249.012 471.545 244.326C466.975 241.423 461.969 237.922 456.998 234.268Z" fill="#0C0C0C"/>
<path d="M432.525 276.052C428.006 279.876 423.156 281.698 418.92 282.42C429.029 284.793 430.531 292.266 436.544 291.41C435.233 285.482 433.597 279.575 432.525 276.052Z" fill="#0C0C0C"/>
<path d="M383.233 301.399C400.186 311.013 411.549 297.903 422.911 300.525C424.987 297.612 430.875 293.008 437.824 297.903C437.473 295.816 437.031 293.612 436.544 291.41C430.531 292.266 429.029 284.793 418.92 282.42C414.635 283.151 410.978 282.757 408.926 282.17C406.266 282.98 403.809 283.976 401.549 285.099C399.813 285.961 398.195 286.897 396.69 287.881C395.447 288.694 394.282 289.539 393.194 290.402C388.437 294.172 385.15 298.265 383.233 301.399Z" fill="#0C0C0C"/>
<path d="M405.809 273.43C406.972 276.834 408.045 279.821 408.926 282.17C410.978 282.757 414.635 283.151 418.92 282.42C423.156 281.698 428.006 279.876 432.525 276.052C432.571 274.278 432.604 272.529 432.627 270.808L405.809 273.43Z" fill="#F4F3EE"/>
<path d="M456.998 234.268C456.706 234.053 456.415 233.839 456.124 233.623L441.266 256.74C443.712 257.887 445.144 258.278 447.384 258.838L448.698 259.115C449.835 257.169 451.001 255.257 452.09 253.328C455.332 247.583 457.895 241.682 456.998 234.268Z" fill="#F4F3EE"/>
<path d="M439.517 254.468L454.376 232.324C453.61 231.752 452.847 231.177 452.088 230.603L436.405 254.202C437.142 254.629 437.93 255.063 438.749 255.492L439.517 254.468Z" fill="#F4F3EE"/>
<path d="M121.765 116.98C128.389 94.5881 123.737 79.6374 119.623 74.1524C116.303 75.1742 108.458 74.5386 100.919 65.4121C101.026 73.3791 96.8713 93.4013 80.2483 114.358C78.6348 116.392 76.904 118.434 75.0481 120.476L83.7884 130.09C90.9408 130.673 106.898 132.887 113.505 137.082C117.273 129.848 119.945 123.133 121.765 116.98Z" fill="#F4F3EE"/>
<path d="M97.7727 61.042C94.8593 58.4199 86.2357 55.2733 75.0481 63.664C57.5676 73.2783 47.9533 87.2628 33.0948 93.3809C38.3061 93.3809 42.9207 94.276 47.0793 95.6991C61.7523 100.72 70.7484 112.315 80.2483 114.358C96.8713 93.4013 101.026 73.3791 100.919 65.4121C99.8599 64.1294 98.8066 62.679 97.7727 61.042Z" fill="#F4F3EE"/>
<path d="M120.801 69.3453L119.623 74.1524C123.737 79.6374 128.389 94.5881 121.765 116.98L128.364 129.216C128.462 126.955 129.41 123.81 131.725 120.476C136.269 113.929 146.08 106.649 165.073 103.869C146.893 73.8027 127.984 68.3255 120.801 69.3453Z" fill="#F4F3EE"/>
<path d="M116.127 40.9394C118.931 39.1549 123.063 36.1882 126.999 32.7127C127.163 32.5679 127.326 32.4223 127.49 32.2759C132.363 27.9008 136.836 22.7815 137.978 18.2146C137.293 16.8446 136.044 15.1623 134.196 13.5763C131.087 18.3693 122.246 29.9531 111.757 37.9435C113.605 38.5672 115.191 39.8698 116.127 40.9394Z" fill="#F4F3EE"/>
<path d="M196.487 153.081L200.908 161.555H205.569V133.852H196.487V153.081Z" fill="#F4F3EE"/>
<path d="M225.381 141.452H232.373H245.483H251.602V131.838H248.98H241.113H225.381V141.452Z" fill="#F4F3EE"/>
<path d="M294.429 104.743L274.326 106.491L276.074 126.594L294.429 124.846V122.224C294.429 122.224 288.866 122.141 288.311 119.602C287.683 116.733 294.429 116.106 294.429 116.106V107.365V104.743Z" fill="black"/>
<path d="M248.98 105.617H241.113V131.838H248.98V105.617Z" fill="black"/>
<path d="M284.815 161.555V151.94H291.807V141.452H272.578V161.555H284.815Z" fill="#F4F3EE"/>
<path d="M190.42 141.452L178.183 161.555H200.908L196.487 153.081L190.42 141.452Z" fill="black"/>
<path d="M227.129 96.8771L210.522 74.1523L202.656 79.3965L205.569 83.6039L210.522 90.7589C213.144 92.5069 216.815 90.4093 217.515 92.5069C217.515 93.381 217.689 93.2061 214.892 96.003L219.263 102.121L227.129 96.8771Z" fill="#F4F3EE"/>
<path d="M440.391 148.849C424.129 157.69 405.59 163.352 394.942 165.43C394.338 175.016 393.482 193.156 393.475 208.752C393.474 209.635 393.477 210.51 393.482 211.374C400.632 212.25 418.594 206.545 432.525 206.021C440.84 205.709 447.719 207.242 450.006 213.122L453.288 153.688L453.502 149.814C450.479 148.871 446.086 148.223 440.391 148.849Z" fill="black"/>
<path d="M386.202 165.925C384.454 163.079 394.068 161.555 394.068 161.555C394.068 161.555 384.182 161.554 380.084 160.681C379.139 160.681 377.48 161.038 375.713 162.139C375.713 163.922 375.709 165.772 375.71 167.673C375.714 181.227 375.956 197.378 379.641 210.5C382.306 209.918 388.805 208.752 393.475 208.752C393.482 193.156 394.338 175.016 394.942 165.43C389.889 166.416 386.614 166.596 386.202 165.925Z" fill="black"/>
<path d="M93.4027 283.923C95.2054 280.481 96.8545 276.978 98.3787 273.431L70.9915 269.792C70.7365 271.435 70.4732 273.097 70.2026 274.766C75.3115 279.111 80.4527 281.088 85.5365 282.336C87.4631 282.809 89.3815 283.178 91.2868 283.531C91.8534 283.636 92.4187 283.74 92.9828 283.844L93.4027 283.923Z" fill="black"/>
<path d="M71.3723 267.312L99.4799 270.808C99.8377 269.937 100.189 269.063 100.533 268.186L71.7667 264.69C71.638 265.555 71.5065 266.43 71.3723 267.312Z" fill="black"/>
<path fill-rule="evenodd" clip-rule="evenodd" d="M41.572 273.367C41.3952 273.213 41.218 273.058 41.0406 272.903L41.0387 272.902C41.2168 273.057 41.3945 273.212 41.572 273.367Z" fill="#F4F3EE"/>
<path d="M30.4728 249.602L50.6563 268.186L52.3234 266.722L31.6035 248.084C31.2289 248.589 30.852 249.095 30.4728 249.602Z" fill="black"/>
<path d="M28.9865 251.58C28.3275 252.452 27.661 253.326 26.9864 254.202C29.497 260.988 32.948 265.317 36.591 268.872C37.8752 270.125 39.1834 271.282 40.4826 272.417L41.0387 272.902L41.0406 272.903L41.572 273.367C42.1044 273.832 42.6336 274.296 43.1575 274.766L44.3028 273.761L44.4585 273.625C45.9552 272.312 47.4111 271.035 48.8273 269.792L28.9865 251.58Z" fill="black"/>
<path fill-rule="evenodd" clip-rule="evenodd" d="M146.718 45.3095C142.966 43.4333 144.096 38.3173 143.222 33.0731C136.23 33.0731 137.104 38.3173 131.86 37.4433C130.112 37.1519 133.608 34.4716 133.608 33.0731C131.568 33.0731 127.49 32.9751 127.49 32.2759C127.326 32.4223 127.163 32.5679 126.999 32.7127C123.063 36.1882 118.931 39.1549 116.127 40.9394C115.191 39.8698 113.605 38.5672 111.757 37.9435C109.578 37.2081 107.035 37.4168 104.765 40.0653C101.618 43.7362 104.503 47.6366 107.739 50.2177C107.883 50.3323 108.028 50.4444 108.172 50.5537C104.765 56.6718 97.7727 61.042 97.7727 61.042C98.8066 62.679 99.8599 64.1294 100.919 65.4121C108.458 74.5386 116.303 75.1742 119.623 74.1524L120.801 69.3453L121.979 64.5381C124.16 65.5457 127.113 66.2861 130.986 66.2861C140.076 66.2861 143.513 55.7978 144.096 50.5537C146.718 50.5537 148.466 46.1835 146.718 45.3095ZM140.008 42.7857C140.35 42.7288 140.6 42.433 140.6 42.0864V42.0864C140.6 41.5594 140.046 41.2166 139.574 41.4523L135.356 43.561L140.008 42.7857Z" fill="#F4F3EE"/>
<path d="M205.569 83.6039C194.177 88.4863 177.197 98.0561 165.662 104.885L165.073 103.869C146.08 106.649 136.269 113.929 131.725 120.476C133.446 123.151 135.084 125.465 136.642 127.468C146.282 139.861 152.865 140.328 157.207 140.578C176.435 141.452 196.538 109.987 214.892 96.003C217.689 93.2061 217.515 93.381 217.515 92.5069C216.815 90.4093 213.144 92.5069 210.522 90.7589L205.569 83.6039Z" fill="#F4F3EE"/>
<path fill-rule="evenodd" clip-rule="evenodd" d="M366.973 26.0808C366.099 32.199 369.071 33.4227 363.477 38.3172C362.603 39.1913 362.079 41.4637 366.973 43.5614C366.973 58.3771 377.856 59.1707 385.786 57.1171V62.7899V67.1601C390.003 68.6168 400.885 68.3838 410.675 55.7978C408.616 53.9864 405.092 50.5313 402.463 47.0575C400.999 45.1226 399.813 43.1818 399.312 41.5159C403.075 40.1148 407.988 36.7315 402.808 32.199C397.215 27.3045 392.903 33.0731 391.446 36.5692C386.202 33.0731 381.657 25.3816 377.462 26.0808L378.336 28.7029C376.005 27.2462 370.469 24.6824 366.973 26.0808ZM371.202 33.9467C370.797 33.9467 370.469 33.6189 370.469 33.2145V33.2145C370.469 32.7148 370.959 32.3619 371.433 32.5199L375.713 33.9467H371.202Z" fill="#F4F3EE"/>
<path d="M371.254 113.484C373.001 93.8178 377.19 75.3772 385.786 67.1601V62.7899C371.343 63.4413 361.205 70.4814 341.626 97.751C343.437 97.4072 346.45 97.4962 350.21 98.6251C356.006 100.365 363.577 104.577 371.254 113.484Z" fill="#F4F3EE"/>
<path d="M371.254 113.484C363.577 104.577 356.006 100.365 350.21 98.6251C349.353 99.8035 348.005 102.692 346.747 105.617C345.766 107.899 344.841 110.203 344.248 111.735C330.264 110.337 305.209 108.239 294.429 107.365V116.106C294.429 116.106 287.683 116.733 288.311 119.602C288.866 122.141 294.429 122.224 294.429 122.224C306.665 124.846 336.907 150.717 352.989 149.319C355.722 149.319 362.991 147.221 370.199 138.83C370.203 130.632 370.503 121.945 371.254 113.484Z" fill="#F4F3EE"/>
<path d="M467.486 103.869C445.636 63.6637 427.281 49.6792 413.297 55.7978C405.919 62.356 407.46 82.4471 423.834 112.609C438.731 102.868 451.022 100.833 459.62 101.819C462.748 102.178 465.388 102.936 467.486 103.869Z" fill="#F4F3EE"/>
<path d="M457.872 151.94C457.289 148.093 455.949 140.153 455.25 139.176C450.777 142.731 445.706 145.959 440.391 148.849C446.086 148.223 450.479 148.871 453.502 149.814C455.676 150.492 457.141 151.322 457.872 151.94Z" fill="#F4F3EE"/>
<path d="M394.068 227.107C393.692 222.779 393.518 217.317 393.482 211.374C393.477 210.51 393.474 209.635 393.475 208.752C388.805 208.752 382.306 209.918 379.641 210.5C382.361 220.19 386.959 228.228 394.723 232.351C394.433 230.505 394.211 228.747 394.068 227.107Z" fill="#F4F3EE"/>
<path d="M375.713 162.139C374.21 163.075 372.629 164.549 371.343 166.799C372.215 167.09 374.309 167.673 375.71 167.673C375.709 165.772 375.713 163.922 375.713 162.139Z" fill="black"/>
<path d="M393.482 211.374C393.518 217.317 393.692 222.779 394.068 227.107C394.211 228.747 394.433 230.505 394.723 232.351C396.421 243.175 400.418 257.041 404.057 268.186L432.661 264.69C432.652 260.074 432.564 255.691 432.411 251.58C431.637 230.694 429.22 216.809 427.281 214.87C429.379 213.472 431.651 208.388 432.525 206.021C418.594 206.545 400.632 212.25 393.482 211.374Z" fill="#F4F3EE"/>
<path d="M427.281 214.87C429.22 216.809 431.637 230.694 432.411 251.58C433.349 252.32 434.75 253.242 436.405 254.202L452.088 230.603C444.521 224.873 437.416 219.129 432.525 215.018C430.452 215.011 428.626 214.95 427.281 214.87Z" fill="#F4F3EE"/>
<path d="M441.266 256.74L456.124 233.623C455.54 233.192 454.957 232.758 454.376 232.324L439.517 254.468L438.749 255.492C439.563 255.918 440.408 256.338 441.266 256.74Z" fill="#F4F3EE"/>
<path d="M405.809 273.43L432.627 270.808C432.639 269.927 432.647 269.053 432.653 268.186L404.923 270.808C405.223 271.706 405.519 272.581 405.809 273.43Z" fill="#F4F3EE"/>
<path d="M404.923 270.808L432.653 268.186C432.661 267.007 432.664 265.841 432.661 264.69L404.057 268.186C404.349 269.078 404.638 269.953 404.923 270.808Z" fill="#F4F3EE"/>
<path fill-rule="evenodd" clip-rule="evenodd" d="M445.636 294.407C457.872 291.785 468.36 273.43 485.841 251.58C483.732 251.052 480.989 249.816 477.839 248.083C474.679 248.666 468.535 252.279 469.234 262.068C460.494 267.312 463.116 283.045 444.762 292.283C445.03 292.979 445.321 293.687 445.636 294.407ZM476.887 252.295C475.343 252.957 474.117 254.195 473.471 255.747L473.05 256.756C472.336 258.471 474.436 259.969 475.825 258.734L476.808 257.861C477.576 257.178 478.185 256.334 478.59 255.389L479.007 254.415C479.581 253.075 478.227 251.721 476.887 252.295V252.295Z" fill="#F4F3EE"/>
<path fill-rule="evenodd" clip-rule="evenodd" d="M381.832 304.021C393.475 310.139 395.816 307.517 438.643 305.769C438.643 303.624 438.326 300.884 437.824 297.903C430.875 293.008 424.987 297.612 422.911 300.525C411.549 297.903 400.186 311.013 383.233 301.399C382.633 302.38 382.167 303.268 381.832 304.021ZM433.996 300.248C432.218 298.47 429.336 298.47 427.558 300.248V300.248C426.944 300.862 427 301.873 427.678 302.416L427.757 302.479C429.523 303.892 432.032 303.892 433.798 302.479L433.876 302.416C434.554 301.873 434.61 300.862 433.996 300.248V300.248Z" fill="#F4F3EE"/>
<path d="M357.895 304.865C358.117 304.312 358.193 303.711 358.116 303.12L341.626 175.539H331.138L350.952 303.902C351.133 305.073 351.871 306.084 352.931 306.614L353.088 306.693C354.917 307.607 357.136 306.763 357.895 304.865V304.865Z" fill="#F4F3EE"/>
<path d="M142.727 161.555C140.317 161.555 138.076 162.797 136.798 164.841V164.841C135.381 167.108 135.381 169.986 136.798 172.253V172.253C138.076 174.297 140.317 175.539 142.728 175.539H149.34H160.703H331.138H341.626H348.667C351.316 175.539 353.737 174.043 354.921 171.674V171.674C355.906 169.706 355.906 167.388 354.921 165.42V165.42C353.737 163.051 351.316 161.555 348.668 161.555H313.658H284.815H272.578H264.712H245.483H232.373H214.018H205.569H200.908H178.183H142.727Z" fill="#F4F3EE"/>
<path d="M284.815 151.94V161.555H313.658V151.94H291.807H284.815Z" fill="black"/>
<path d="M264.712 161.555V141.452H251.602H245.483V161.555H264.712Z" fill="#F4F3EE"/>
<path d="M245.483 161.555V141.452H232.373V161.555H245.483Z" fill="black"/>
<path d="M232.373 161.555V141.452H225.381H214.018V161.555H232.373Z" fill="#F4F3EE"/>
<path d="M149.34 175.539L132.101 303.114C131.949 304.237 132.33 305.365 133.131 306.166L133.241 306.277C134.455 307.49 136.376 307.627 137.749 306.597V306.597C138.457 306.066 138.934 305.282 139.08 304.409L160.703 175.539H149.34Z" fill="#F4F3EE"/>
<path d="M113.505 226.233C114.694 221.875 115.349 214.703 115.638 206.13C110.221 207.288 104.839 207.2 99.5209 206.319C98.8783 220.961 95.6432 227.449 74.1741 247.228C73.6196 251.662 72.7836 257.855 71.7667 264.69L100.533 268.186C105.947 254.402 109.726 240.09 113.505 226.233Z" fill="#F4F3EE"/>
<path d="M99.5209 206.319C85.4865 203.993 71.9012 196.141 59.3157 191.07C59.4867 195.898 60.3606 202.96 62.4681 208.144C62.9528 209.337 63.5028 210.431 64.1246 211.375C53.1019 217.427 43.514 232.032 31.6035 248.084L52.3234 266.722C61.1621 258.956 68.3411 252.601 74.1741 247.228C95.6432 227.449 98.8783 220.961 99.5209 206.319Z" fill="#F4F3EE"/>
<path d="M70.9915 269.792L98.3787 273.431C98.7532 272.559 99.1201 271.685 99.4799 270.808L71.3723 267.312C71.2477 268.133 71.1206 268.96 70.9915 269.792Z" fill="#F4F3EE"/>
<path d="M28.9865 251.58L48.8273 269.792L50.6563 268.186L30.4728 249.602C29.9815 250.26 29.4861 250.919 28.9865 251.58Z" fill="#F4F3EE"/>
<path d="M36.591 268.872C26.9864 266.722 22.6065 269.06 16.7233 266.722C15.5078 268.099 14.2649 269.466 12.9922 270.82C22.0821 270.829 24.3546 277.808 24.3546 281.296C39.5715 289.662 33.9689 299.651 55.7481 303.147C55.5158 297.64 54.7272 293.263 53.5399 289.662C52.8754 287.646 52.0861 285.874 51.1996 284.283C50.2113 282.509 49.1021 280.959 47.9104 279.548C46.4292 277.795 44.8204 276.256 43.1575 274.766C42.6336 274.296 42.1044 273.832 41.572 273.367L41.0406 272.903L41.0387 272.902L40.4826 272.417C39.1834 271.282 37.8752 270.125 36.591 268.872Z" fill="#F4F3EE"/>
<path d="M85.5365 282.336C82.0404 281.769 75.9222 289.163 67.3494 290.911C66.9024 293.202 66.4487 295.406 65.9925 297.482C72.0332 291.551 79.208 296.457 82.0404 299.651C96.0248 297.029 97.7729 310.139 119.896 301.399C116.893 296.363 113.756 292.898 110.516 290.442C108.914 289.227 107.287 288.259 105.639 287.47C103.958 286.664 102.254 286.045 100.533 285.539C98.1867 284.85 95.8068 284.372 93.4027 283.923L92.9828 283.844C92.4187 283.74 91.8534 283.636 91.2868 283.531C89.3815 283.178 87.4631 282.809 85.5365 282.336Z" fill="#F4F3EE"/>
<path d="M26.9864 254.202C23.7699 258.379 20.3699 262.592 16.7233 266.722C22.6065 269.06 26.9864 266.722 36.591 268.872C32.948 265.317 29.497 260.988 26.9864 254.202Z" fill="#F4F3EE"/>
<path fill-rule="evenodd" clip-rule="evenodd" d="M6 277.801C25.2286 290.037 43.9328 310.14 55.8195 306.644C55.8195 305.43 55.7953 304.265 55.7481 303.147C33.9689 299.651 39.5715 289.662 24.3546 281.296C24.3546 277.808 22.0821 270.829 12.9922 270.82C10.7574 273.197 8.43091 275.532 6 277.801ZM17.8783 281.296C15.5631 281.296 13.5873 279.623 13.2067 277.339V277.339C13.0944 276.665 13.6138 276.052 14.2967 276.052H15.7324C18.0807 276.052 19.9844 277.956 19.9844 280.304V280.304C19.9844 280.852 19.5402 281.296 18.9923 281.296H17.8783Z" fill="#F4F3EE"/>
<path fill-rule="evenodd" clip-rule="evenodd" d="M63.6858 306.644C87.2845 306.644 114.379 312.412 121.372 304.022C120.884 303.103 120.392 302.23 119.896 301.399C97.7729 310.139 96.0248 297.029 82.0404 299.651C79.208 296.457 72.0332 291.551 65.9925 297.482C65.2246 300.974 64.4494 304.098 63.6858 306.644ZM75.9633 302.423C74.3046 303.418 72.2523 303.497 70.5222 302.632L70.3358 302.539C69.3965 302.069 69.3965 300.729 70.3359 300.259L70.5222 300.166C72.2524 299.301 74.3045 299.38 75.9632 300.375V300.375C76.7364 300.839 76.7364 301.959 75.9633 302.423V302.423Z" fill="#F4F3EE"/>
<path d="M70.2026 274.766C69.314 280.247 68.3482 285.793 67.3494 290.911C75.9222 289.163 82.0404 281.769 85.5365 282.336C80.4527 281.088 75.3115 279.111 70.2026 274.766Z" fill="#F4F3EE"/>
<path d="M423.834 112.609C424.918 114.605 426.177 116.869 427.392 118.952C423.758 121.263 420.315 124.166 416.987 127.044C416.614 127.367 416.241 127.69 415.87 128.012C412.296 131.113 408.847 134.105 405.43 136.208C405.43 136.208 385.219 141.221 386.202 142.326C388.031 144.382 392.32 145.822 392.32 145.822C392.32 145.822 377.462 149.318 377.462 151.066C377.462 151.412 379.642 151.757 382.281 152.048C386.615 152.058 391.446 152.814 391.446 152.814C391.446 152.814 386.325 152.494 382.281 152.048C379.208 152.041 376.386 152.409 375.713 153.688C374.305 156.366 393.194 157.185 393.194 157.185C393.194 157.185 378.278 157.185 378.336 159.807C378.343 160.167 379.018 160.454 380.084 160.681C384.182 161.554 394.068 161.555 394.068 161.555C394.068 161.555 384.454 163.079 386.202 165.925C386.614 166.596 389.889 166.416 394.942 165.43C405.59 163.352 424.129 157.69 440.391 148.849C445.706 145.959 450.777 142.731 455.25 139.176C458.157 136.866 460.812 134.419 463.116 131.838C466.612 126.594 464.537 113.432 462.242 107.64C461.316 105.302 460.374 103.272 459.62 101.819C451.022 100.833 438.731 102.868 423.834 112.609Z" fill="#F4F3EE"/>
<path d="M410.675 55.7978C400.885 68.3838 390.003 68.6168 385.786 67.1601C377.19 75.3772 373.001 93.8178 371.254 113.484C370.503 121.945 370.203 130.632 370.199 138.83C370.194 149.514 370.691 159.365 371.343 166.799C372.629 164.549 374.21 163.075 375.713 162.139C377.48 161.038 379.139 160.681 380.084 160.681C379.018 160.454 378.343 160.167 378.336 159.807C378.278 157.185 393.194 157.185 393.194 157.185C393.194 157.185 374.305 156.366 375.713 153.688C376.386 152.409 379.208 152.041 382.281 152.048C379.642 151.757 377.462 151.412 377.462 151.066C377.462 149.318 392.32 145.822 392.32 145.822C392.32 145.822 388.031 144.382 386.202 142.326C385.219 141.221 405.43 136.208 405.43 136.208C408.847 134.105 412.296 131.113 415.87 128.012C416.241 127.69 416.614 127.367 416.987 127.044C420.315 124.166 423.758 121.263 427.392 118.952C426.177 116.869 424.918 114.605 423.834 112.609C407.46 82.4471 405.919 62.356 413.297 55.7978H410.675Z" fill="#F4F3EE"/>
<path d="M75.0481 120.476C76.904 118.434 78.6348 116.392 80.2483 114.358C70.7484 112.315 61.7523 100.72 47.0793 95.6991C44.3885 98.7603 42.4049 102.265 40.9611 105.804C37.9027 113.301 37.2671 120.948 37.465 124.846C38.8726 133.292 43.555 137.204 52.3234 142.802C59.8882 147.632 70.4942 153.717 84.6624 165.051C86.8207 166.778 94.2767 176.414 96.0248 175.539C96.7164 175.194 96.4389 173.551 95.8054 171.626C94.8575 169.613 93.9998 167.517 93.4027 165.925C94.139 167.398 95.1581 169.659 95.8054 171.626C97.6326 175.507 99.795 179.082 101.073 178.162C102.444 177.174 101.474 172.347 100.217 168.058C99.6029 166.353 99.0611 164.684 98.6469 163.303C99.1216 164.586 99.694 166.276 100.217 168.058C102.192 173.549 104.913 179.422 106.513 177.288C108.165 175.085 105.95 169.123 103.796 164.698C103.172 163.566 102.605 162.479 102.143 161.555C102.638 162.422 103.215 163.504 103.796 164.698C106.318 169.276 109.762 174.599 110.883 172.917C111.174 168.561 108.955 163.144 105.639 157.595C104.327 155.399 102.842 153.183 101.273 151.003C101.128 150.869 101.055 150.773 101.073 150.725C94.7123 141.942 87.0352 133.801 83.7884 130.09L75.0481 120.476Z" fill="#F4F3EE"/>
<path d="M59.3157 191.07C47.8606 186.454 37.2338 184.143 27.8507 190.398C26.1648 195.731 30.7281 206.746 62.4681 208.144C60.3606 202.96 59.4867 195.898 59.3157 191.07Z" fill="#F4F3EE"/>
<path d="M105.639 157.595C108.955 163.144 111.174 168.561 110.883 172.917C109.762 174.599 106.318 169.276 103.796 164.698C105.95 169.123 108.165 175.085 106.513 177.288C104.913 179.422 102.192 173.549 100.217 168.058C101.474 172.347 102.444 177.174 101.073 178.162C99.795 179.082 97.6326 175.507 95.8054 171.626C96.4389 173.551 96.7164 175.194 96.0248 175.539C94.2767 176.414 86.8207 166.778 84.6624 165.051C70.4942 153.717 59.8882 147.632 52.3234 142.802C44.4572 167.673 31.3468 175.539 27.8507 190.398C37.2338 184.143 47.8606 186.454 59.3157 191.07C71.9012 196.141 85.4865 203.993 99.5209 206.319C104.839 207.2 110.221 207.288 115.638 206.13C116.37 184.441 114.758 153.787 113.505 137.082C106.898 132.887 90.9408 130.673 83.7884 130.09C87.0352 133.801 94.7123 141.942 101.073 150.725C101.14 150.818 101.207 150.91 101.273 151.003C102.74 152.355 111.599 157.637 110.009 158.059C108.611 158.43 106.513 157.904 105.639 157.595Z" fill="black"/>
<path d="M450.006 213.122C447.719 207.242 440.84 205.709 432.525 206.021C431.651 208.388 429.379 213.472 427.281 214.87C428.626 214.95 430.452 215.011 432.525 215.018C438.086 215.034 445.422 214.65 450.006 213.122Z" fill="#F4F0EE"/>
<path d="M143.222 33.0731C144.096 38.3173 142.966 43.4333 146.718 45.3095C148.466 46.1835 146.718 50.5537 144.096 50.5537C143.513 55.7978 140.076 66.2861 130.986 66.2861C127.113 66.2861 124.16 65.5457 121.979 64.5381M143.222 33.0731C136.23 33.0731 137.104 38.3173 131.86 37.4433C130.112 37.1519 133.608 34.4716 133.608 33.0731C131.568 33.0731 127.49 32.9751 127.49 32.2759M143.222 33.0731C147.884 30.7424 156.158 24.6824 151.962 19.0887C147.767 13.4949 140.891 16.1752 137.978 18.2146M117.001 60.168C117.503 61.3385 119.041 63.1807 121.979 64.5381M127.49 32.2759C132.363 27.9008 136.836 22.7815 137.978 18.2146M127.49 32.2759C127.326 32.4223 127.163 32.5679 126.999 32.7127M119.623 74.1524L120.801 69.3453M119.623 74.1524C123.737 79.6374 128.389 94.5881 121.765 116.98M119.623 74.1524C116.303 75.1742 108.458 74.5386 100.919 65.4121M121.979 64.5381L120.801 69.3453M97.7727 61.042C97.7727 61.042 104.765 56.6718 108.172 50.5537C108.028 50.4444 107.883 50.3323 107.739 50.2177M97.7727 61.042C94.8593 58.4199 86.2357 55.2733 75.0481 63.664M97.7727 61.042C98.8066 62.679 99.8599 64.1294 100.919 65.4121M110.883 52.3017C109.936 51.7919 108.818 51.0781 107.739 50.2177M137.978 18.2146C137.293 16.8446 136.044 15.1623 134.196 13.5763M137.978 18.2146C136.798 22.9344 132.06 28.2441 126.999 32.7127M75.0481 63.664C69.4544 61.5663 67.7877 54.0497 67.6536 50.5537C67.332 37.2683 81.7721 33.3644 89.0324 33.0731C95.1506 29.5772 95.1506 13.1899 110.009 9.47388C121.858 6.51052 129.757 9.76578 134.196 13.5763M75.0481 63.664C57.5676 73.2783 47.9533 87.2628 33.0948 93.3809M134.196 13.5763C131.087 18.3693 122.246 29.9531 111.757 37.9435M111.757 37.9435C113.605 38.5672 115.191 39.8698 116.127 40.9394C118.931 39.1549 123.063 36.1882 126.999 32.7127M111.757 37.9435C109.578 37.2081 107.035 37.4168 104.765 40.0653C101.618 43.7362 104.503 47.6366 107.739 50.2177M113.505 137.082C117.273 129.848 119.945 123.133 121.765 116.98M113.505 137.082C106.898 132.887 90.9408 130.673 83.7884 130.09M113.505 137.082C114.758 153.787 116.37 184.441 115.638 206.13M120.801 69.3453C127.984 68.3255 146.893 73.8027 165.073 103.869M165.073 103.869L165.662 104.885M165.073 103.869C146.08 106.649 136.269 113.929 131.725 120.476M121.765 116.98L128.364 129.216M128.364 129.216C128.462 126.955 129.41 123.81 131.725 120.476M128.364 129.216C129.804 129.507 133.475 129.566 136.642 127.468M157.207 109.987C159.427 108.616 162.329 106.858 165.662 104.885M205.569 83.6039C194.177 88.4863 177.197 98.0561 165.662 104.885M205.569 83.6039L202.656 79.3965M205.569 83.6039L210.522 90.7589M214.892 96.003L219.263 102.121L227.129 96.8771L210.522 74.1523L202.656 79.3965M214.892 96.003C217.689 93.2061 217.515 93.381 217.515 92.5069C216.815 90.4093 213.144 92.5069 210.522 90.7589M214.892 96.003C196.538 109.987 176.435 141.452 157.207 140.578C152.865 140.328 146.282 139.861 136.642 127.468M202.656 79.3965L210.522 90.7589M131.725 120.476C133.446 123.151 135.084 125.465 136.642 127.468M33.0948 93.3809C38.3061 93.3809 42.9207 94.276 47.0793 95.6991M33.0948 93.3809C33.0948 95.545 34.6681 101.059 40.9611 105.804M100.919 65.4121C101.026 73.3791 96.8713 93.4013 80.2483 114.358M75.0481 120.476C76.904 118.434 78.6348 116.392 80.2483 114.358M75.0481 120.476L83.7884 130.09M75.0481 120.476C73.3001 119.019 69.2796 116.28 67.1819 116.98M80.2483 114.358C70.7484 112.315 61.7523 100.72 47.0793 95.6991M83.7884 130.09C87.0352 133.801 94.7123 141.942 101.073 150.725M105.639 157.595C108.955 163.144 111.174 168.561 110.883 172.917C109.762 174.599 106.318 169.276 103.796 164.698M105.639 157.595C106.513 157.904 108.611 158.43 110.009 158.059C111.599 157.637 102.74 152.355 101.273 151.003M105.639 157.595C104.327 155.399 102.842 153.183 101.273 151.003M101.073 150.725C101.14 150.818 101.207 150.91 101.273 151.003M101.073 150.725C101.055 150.773 101.128 150.869 101.273 151.003M47.0793 95.6991C44.3885 98.7603 42.4049 102.265 40.9611 105.804M40.9611 105.804C37.9027 113.301 37.2671 120.948 37.465 124.846C38.8726 133.292 43.555 137.204 52.3234 142.802M93.4027 283.923C95.2054 280.481 96.8545 276.978 98.3787 273.431M93.4027 283.923C93.2628 283.897 93.1228 283.87 92.9828 283.844M93.4027 283.923L92.9828 283.844M93.4027 283.923C95.8068 284.372 98.1867 284.85 100.533 285.539M52.3234 142.802C59.8882 147.632 70.4942 153.717 84.6624 165.051C86.8207 166.778 94.2767 176.414 96.0248 175.539C96.7164 175.194 96.4389 173.551 95.8054 171.626M52.3234 142.802C44.4572 167.673 31.3468 175.539 27.8507 190.398M27.8507 190.398C37.2338 184.143 47.8606 186.454 59.3157 191.07M27.8507 190.398C26.1648 195.731 30.7281 206.746 62.4681 208.144M115.638 206.13C115.349 214.703 114.694 221.875 113.505 226.233C109.726 240.09 105.947 254.402 100.533 268.186M115.638 206.13C110.221 207.288 104.839 207.2 99.5209 206.319M99.5209 206.319C85.4865 203.993 71.9012 196.141 59.3157 191.07M99.5209 206.319C98.8783 220.961 95.6432 227.449 74.1741 247.228M43.1575 274.766L44.3028 273.761M43.1575 274.766C43.5419 274.429 43.9236 274.094 44.3028 273.761M43.1575 274.766C42.6336 274.296 42.1044 273.832 41.572 273.367M43.1575 274.766C44.8204 276.256 46.4292 277.795 47.9104 279.548M59.3157 191.07C59.4867 195.898 60.3606 202.96 62.4681 208.144M68.9299 214.871C66.987 214.628 65.404 213.317 64.1246 211.375M64.1246 211.375C53.1019 217.427 43.514 232.032 31.6035 248.084M64.1246 211.375C63.5028 210.431 62.9528 209.337 62.4681 208.144M26.9864 254.202C27.661 253.326 28.3275 252.452 28.9865 251.58M26.9864 254.202C23.7699 258.379 20.3699 262.592 16.7233 266.722M26.9864 254.202C29.497 260.988 32.948 265.317 36.591 268.872M28.9865 251.58L48.8273 269.792M28.9865 251.58C29.4861 250.919 29.9815 250.26 30.4728 249.602M48.8273 269.792C49.4445 269.25 50.0541 268.715 50.6563 268.186M48.8273 269.792C47.4111 271.035 45.9552 272.312 44.4585 273.625M48.8273 269.792L50.6563 268.186M50.6563 268.186L30.4728 249.602M50.6563 268.186C51.2185 267.693 51.7742 267.205 52.3234 266.722M50.6563 268.186L52.3234 266.722M30.4728 249.602C30.852 249.095 31.2289 248.589 31.6035 248.084M31.6035 248.084L52.3234 266.722M52.3234 266.722C61.1621 258.956 68.3411 252.601 74.1741 247.228M74.1741 247.228C73.6196 251.662 72.7836 257.855 71.7667 264.69M70.2026 274.766C70.4732 273.097 70.7365 271.435 70.9915 269.792M70.2026 274.766C69.314 280.247 68.3482 285.793 67.3494 290.911M70.2026 274.766C75.3115 279.111 80.4527 281.088 85.5365 282.336M98.3787 273.431L70.9915 269.792M98.3787 273.431C98.7532 272.559 99.1201 271.685 99.4799 270.808M70.9915 269.792C71.1206 268.96 71.2477 268.133 71.3723 267.312M71.3723 267.312L99.4799 270.808M71.3723 267.312C71.5065 266.43 71.638 265.555 71.7667 264.69M99.4799 270.808C99.8377 269.937 100.189 269.063 100.533 268.186M100.533 268.186L71.7667 264.69M366.973 26.0808C366.099 32.199 369.071 33.4227 363.477 38.3172C362.603 39.1913 362.079 41.4637 366.973 43.5614C366.973 58.3771 377.856 59.1707 385.786 57.1171M366.973 26.0808C370.469 24.6824 376.005 27.2462 378.336 28.7029L377.462 26.0808C381.657 25.3816 386.202 33.0731 391.446 36.5692C392.903 33.0731 397.215 27.3045 402.808 32.199C407.988 36.7315 403.075 40.1148 399.312 41.5159M366.973 26.0808C357.883 27.4793 353.756 20.7134 355.611 14.7185C357.465 8.72353 364.642 8.6003 368.721 9.47432C368.721 9.47432 366.973 3.35609 372.217 1.60808C379.704 -0.887341 381.832 5.10419 381.832 5.10419C381.832 5.10419 384.454 0.60995 391.446 1.60808C397.564 2.48144 397.564 9.47432 397.564 9.47432C397.564 9.47432 404.556 6.85158 407.179 11.2224C409.801 15.5932 406.304 20.8367 406.304 20.8367C406.304 20.8367 412.836 19.962 414.171 26.9549C414.801 30.2569 410.675 34.8211 410.675 34.8211C410.675 34.8211 414.171 40.0286 410.675 44.4354C407.902 47.9309 402.463 47.0575 402.463 47.0575M389.698 55.7978C388.543 56.2863 387.212 56.7478 385.786 57.1171M385.786 57.1171V62.7899M385.786 67.1601C390.003 68.6168 400.885 68.3838 410.675 55.7978M385.786 67.1601C377.19 75.3772 373.001 93.8178 371.254 113.484M385.786 67.1601V62.7899M398.438 41.8133C398.718 41.7271 399.012 41.6278 399.312 41.5159M410.675 55.7978C408.616 53.9864 405.092 50.5313 402.463 47.0575M410.675 55.7978H413.297M399.312 41.5159C399.813 43.1818 400.999 45.1226 402.463 47.0575M371.343 166.799C370.691 159.365 370.194 149.514 370.199 138.83M371.343 166.799C372.629 164.549 374.21 163.075 375.713 162.139M371.343 166.799C372.215 167.09 374.309 167.673 375.71 167.673M341.626 97.751C361.205 70.4814 371.343 63.4413 385.786 62.7899M341.626 97.751C343.437 97.4072 346.45 97.4962 350.21 98.6251M341.626 97.751C341.544 99.2077 342.453 102.82 346.747 105.617M371.254 113.484C363.577 104.577 356.006 100.365 350.21 98.6251M371.254 113.484C370.503 121.945 370.203 130.632 370.199 138.83M344.248 111.735C344.841 110.203 345.766 107.899 346.747 105.617M344.248 111.735C330.264 110.337 305.209 108.239 294.429 107.365M344.248 111.735C350.541 113.134 353.28 114.649 353.863 115.232M350.21 98.6251C349.353 99.8035 348.005 102.692 346.747 105.617M294.429 116.106C294.429 116.106 287.683 116.733 288.311 119.602C288.866 122.141 294.429 122.224 294.429 122.224M294.429 116.106C295.012 116.106 296.177 115.931 296.177 115.232M294.429 116.106V107.365M294.429 122.224V124.846L276.074 126.594L274.326 106.491L294.429 104.743V107.365M294.429 122.224C306.665 124.846 336.907 150.717 352.989 149.319C355.722 149.319 362.991 147.221 370.199 138.83M413.297 55.7978C427.281 49.6792 445.636 63.6637 467.486 103.869M413.297 55.7978C405.919 62.356 407.46 82.4471 423.834 112.609M467.486 103.869C465.388 102.936 462.748 102.178 459.62 101.819M467.486 103.869C466.904 104.635 465.039 106.462 462.242 107.64M423.834 112.609C424.918 114.605 426.177 116.869 427.392 118.952C423.758 121.263 420.315 124.166 416.987 127.044M423.834 112.609C438.731 102.868 451.022 100.833 459.62 101.819M435.147 115.232C428.528 117.277 422.593 122.195 416.987 127.044M459.62 101.819C460.374 103.272 461.316 105.302 462.242 107.64M462.242 107.64C464.537 113.432 466.612 126.594 463.116 131.838C460.812 134.419 458.157 136.866 455.25 139.176M457.872 151.94C457.289 148.093 455.949 140.153 455.25 139.176M457.872 151.94C457.141 151.322 455.676 150.492 453.502 149.814M457.872 151.94C457.438 152.232 455.914 152.989 453.288 153.688M455.25 139.176C450.777 142.731 445.706 145.959 440.391 148.849M440.391 148.849C424.129 157.69 405.59 163.352 394.942 165.43M440.391 148.849C446.086 148.223 450.479 148.871 453.502 149.814M380.084 160.681C379.018 160.454 378.343 160.167 378.336 159.807C378.278 157.185 393.194 157.185 393.194 157.185C393.194 157.185 374.305 156.366 375.713 153.688C376.386 152.409 379.208 152.041 382.281 152.048M380.084 160.681C384.182 161.554 394.068 161.555 394.068 161.555C394.068 161.555 384.454 163.079 386.202 165.925C386.614 166.596 389.889 166.416 394.942 165.43M380.084 160.681C379.139 160.681 377.48 161.038 375.713 162.139M394.942 165.43C394.338 175.016 393.482 193.156 393.475 208.752M408.926 282.17C408.045 279.821 406.972 276.834 405.809 273.43M408.926 282.17C410.978 282.757 414.635 283.151 418.92 282.42M408.926 282.17C406.266 282.98 403.809 283.976 401.549 285.099M432.525 276.052C432.571 274.278 432.604 272.529 432.627 270.808M432.525 276.052C428.006 279.876 423.156 281.698 418.92 282.42M432.525 276.052C433.597 279.575 435.233 285.482 436.544 291.41M453.502 149.814L453.288 153.688M450.006 213.122L453.288 153.688M450.006 213.122C447.719 207.242 440.84 205.709 432.525 206.021M450.006 213.122C445.422 214.65 438.086 215.034 432.525 215.018M393.482 211.374C393.518 217.317 393.692 222.779 394.068 227.107C394.211 228.747 394.433 230.505 394.723 232.351M393.482 211.374C400.632 212.25 418.594 206.545 432.525 206.021M393.482 211.374C393.477 210.51 393.474 209.635 393.475 208.752M432.525 206.021C431.651 208.388 429.379 213.472 427.281 214.87M427.281 214.87C429.22 216.809 431.637 230.694 432.411 251.58M427.281 214.87C428.626 214.95 430.452 215.011 432.525 215.018M375.713 162.139C375.713 163.922 375.709 165.772 375.71 167.673M394.723 232.351C386.959 228.228 382.361 220.19 379.641 210.5M394.723 232.351C396.421 243.175 400.418 257.041 404.057 268.186M375.71 167.673C375.714 181.227 375.956 197.378 379.641 210.5M379.641 210.5C382.306 209.918 388.805 208.752 393.475 208.752M432.411 251.58C433.349 252.32 434.75 253.242 436.405 254.202M432.411 251.58C432.564 255.691 432.652 260.074 432.661 264.69M432.525 215.018C437.416 219.129 444.521 224.873 452.088 230.603M456.998 234.268C456.706 234.053 456.415 233.839 456.124 233.623M456.998 234.268C457.895 241.682 455.332 247.583 452.09 253.328M456.998 234.268C461.969 237.922 466.975 241.423 471.545 244.326M456.124 233.623L441.266 256.74M456.124 233.623C455.54 233.192 454.957 232.758 454.376 232.324M441.266 256.74C443.712 257.887 445.144 258.278 447.384 258.838L448.698 259.115M441.266 256.74C440.408 256.338 439.563 255.918 438.749 255.492M454.376 232.324L439.517 254.468L438.749 255.492M454.376 232.324C453.61 231.752 452.847 231.177 452.088 230.603M452.088 230.603L436.405 254.202M436.405 254.202C437.142 254.629 437.93 255.063 438.749 255.492M444.762 292.283C445.03 292.979 445.321 293.687 445.636 294.407C457.872 291.785 468.36 273.43 485.841 251.58C483.732 251.052 480.989 249.816 477.839 248.083M444.762 292.283C463.116 283.045 460.494 267.312 469.234 262.068C468.535 252.279 474.679 248.666 477.839 248.083M444.762 292.283C442.707 286.956 441.968 282.323 442.101 278.166M477.839 248.083C475.88 247.006 473.764 245.737 471.545 244.326M383.233 301.399C382.633 302.38 382.167 303.268 381.832 304.021C393.475 310.139 395.816 307.517 438.643 305.769C438.643 303.624 438.326 300.884 437.824 297.903M383.233 301.399C400.186 311.013 411.549 297.903 422.911 300.525C424.987 297.612 430.875 293.008 437.824 297.903M383.233 301.399C385.15 298.265 388.437 294.172 393.194 290.402M437.824 297.903C437.473 295.816 437.031 293.612 436.544 291.41M405.809 273.43L432.627 270.808M405.809 273.43C405.519 272.581 405.223 271.706 404.923 270.808M432.627 270.808C432.639 269.927 432.647 269.053 432.653 268.186M432.653 268.186L404.923 270.808M432.653 268.186C432.661 267.007 432.664 265.841 432.661 264.69M404.923 270.808C404.638 269.953 404.349 269.078 404.057 268.186M404.057 268.186L432.661 264.69M149.34 175.539H142.728C140.317 175.539 138.076 174.297 136.798 172.253V172.253C135.381 169.986 135.381 167.108 136.798 164.841V164.841C138.076 162.797 140.317 161.555 142.727 161.555H178.183M149.34 175.539L132.101 303.114C131.949 304.237 132.33 305.365 133.131 306.166L133.241 306.277C134.455 307.49 136.376 307.627 137.749 306.597V306.597C138.457 306.066 138.934 305.282 139.08 304.409L160.703 175.539M149.34 175.539H160.703M160.703 175.539H331.138M341.626 175.539H348.667C351.316 175.539 353.737 174.043 354.921 171.674V171.674C355.906 169.706 355.906 167.388 354.921 165.42V165.42C353.737 163.051 351.316 161.555 348.668 161.555H313.658M341.626 175.539L358.116 303.12C358.193 303.711 358.117 304.312 357.895 304.865V304.865C357.136 306.763 354.917 307.607 353.088 306.693L352.931 306.614C351.871 306.084 351.133 305.073 350.952 303.902L331.138 175.539M341.626 175.539H331.138M284.815 161.555V151.94H291.807M284.815 161.555H313.658M284.815 161.555H272.578M313.658 161.555V151.94H291.807M272.578 161.555V141.452H291.807V151.94M272.578 161.555H264.712M264.712 161.555V141.452H251.602M264.712 161.555H245.483M245.483 141.452V161.555M245.483 141.452H251.602M245.483 141.452H232.373M245.483 161.555H232.373M232.373 161.555V141.452M232.373 161.555H214.018M232.373 141.452H225.381M214.018 161.555V141.452H225.381M214.018 161.555H205.569M225.381 141.452V131.838H241.113M251.602 141.452V131.838H248.98M248.98 131.838V105.617H241.113V131.838M248.98 131.838H241.113M106.513 41.813C107.97 41.2302 111.408 41.2882 113.505 46.1831M133.608 51.4273C133.316 53.1753 133.783 56.6714 137.978 56.6714M67.3494 290.911C75.9222 289.163 82.0404 281.769 85.5365 282.336M67.3494 290.911C66.9024 293.202 66.4487 295.406 65.9925 297.482M85.5365 282.336C87.4631 282.809 89.3815 283.178 91.2868 283.531C91.8534 283.636 92.4187 283.74 92.9828 283.844M119.896 301.399C120.392 302.23 120.884 303.103 121.372 304.022C114.379 312.412 87.2845 306.644 63.6858 306.644C64.4494 304.098 65.2246 300.974 65.9925 297.482M119.896 301.399C97.7729 310.139 96.0248 297.029 82.0404 299.651C79.208 296.457 72.0332 291.551 65.9925 297.482M119.896 301.399C116.893 296.363 113.756 292.898 110.516 290.442M90.7806 293.533C92.0379 291.409 95.7484 286.836 100.533 285.539M100.533 285.539C102.254 286.045 103.958 286.664 105.639 287.47M100.533 285.539C98.0502 284.81 95.5297 284.317 92.9828 283.844M95.1508 296.155C96.3161 293.903 100.045 289.014 105.639 287.47M105.639 287.47C107.287 288.259 108.914 289.227 110.516 290.442M101.269 297.903C102.772 295.551 106.727 290.766 110.516 290.442M16.7233 266.722C22.6065 269.06 26.9864 266.722 36.591 268.872M16.7233 266.722C15.5078 268.099 14.2649 269.466 12.9922 270.82M36.591 268.872C37.8752 270.125 39.1834 271.282 40.4826 272.417M35.7169 281.296C37.4364 280.422 42.2823 278.849 47.9104 279.548M47.9104 279.548C49.1021 280.959 50.2113 282.509 51.1996 284.283M47.9104 279.548C45.9626 277.243 43.7941 275.307 41.572 273.367M38.339 285.667C40.5032 284.744 46.1052 283.176 51.1996 284.283M51.1996 284.283C52.0861 285.874 52.8754 287.646 53.5399 289.662M42.7091 290.037C44.9768 289.204 50.3177 287.963 53.5399 289.662M53.5399 289.662C54.7272 293.263 55.5158 297.64 55.7481 303.147M55.7481 303.147C55.7953 304.265 55.8195 305.43 55.8195 306.644C43.9328 310.14 25.2286 290.037 6 277.801C8.43091 275.532 10.7574 273.197 12.9922 270.82M55.7481 303.147C33.9689 299.651 39.5715 289.662 24.3546 281.296C24.3546 277.808 22.0821 270.829 12.9922 270.82M395.816 37.4428C396.107 36.2775 397.389 33.9467 400.186 33.9467M372.217 47.9312C373.965 48.2224 377.462 47.7561 377.462 43.561M452.09 253.328C459.62 247.209 468.499 249.012 471.545 244.326M452.09 253.328C451.001 255.257 449.835 257.169 448.698 259.115M458.746 263.816C455.663 263.525 448.499 263.816 444.507 267.312M444.507 267.312C443.825 268.988 443.249 270.728 442.83 272.556M444.507 267.312C445.678 264.433 447.162 261.743 448.698 259.115M456.998 269.06C453.671 268.769 446.179 269.06 442.83 272.556M442.83 272.556C442.422 274.334 442.164 276.197 442.101 278.166M453.502 274.304C450.563 274.257 444.167 274.963 442.101 278.166M418.92 282.42C429.029 284.793 430.531 292.266 436.544 291.41M401.549 285.099C404.299 285.871 411.199 289.338 413.297 293.533M401.549 285.099C399.813 285.961 398.195 286.897 396.69 287.881M396.69 287.881C399.021 288.017 404.556 289.862 408.052 296.155M396.69 287.881C395.447 288.694 394.282 289.539 393.194 290.402M402.808 297.903C401.643 295.815 398.089 291.393 393.194 290.402M44.3028 273.761L44.4585 273.625M44.3028 273.761C44.3547 273.716 44.4067 273.67 44.4585 273.625M178.183 161.555L190.42 141.452L196.487 153.081M178.183 161.555H200.908M200.908 161.555L196.487 153.081M200.908 161.555H205.569M196.487 153.081V133.852H205.569V161.555M41.572 273.367C41.3952 273.213 41.218 273.058 41.0406 272.903M41.572 273.367C41.3945 273.212 41.2168 273.057 41.0387 272.902M41.572 273.367L41.0406 272.903M41.0406 272.903L41.0387 272.902M41.0387 272.902C40.8536 272.741 40.6681 272.579 40.4826 272.417M41.0387 272.902L40.4826 272.417M103.796 164.698C105.95 169.123 108.165 175.085 106.513 177.288C104.913 179.422 102.192 173.549 100.217 168.058M103.796 164.698C103.215 163.504 102.638 162.422 102.143 161.555C102.605 162.479 103.172 163.566 103.796 164.698ZM100.217 168.058C101.474 172.347 102.444 177.174 101.073 178.162C99.795 179.082 97.6326 175.507 95.8054 171.626M100.217 168.058C99.694 166.276 99.1216 164.586 98.6469 163.303C99.0611 164.684 99.6029 166.353 100.217 168.058ZM95.8054 171.626C95.1581 169.659 94.139 167.398 93.4027 165.925C93.9998 167.517 94.8575 169.613 95.8054 171.626ZM382.281 152.048C379.642 151.757 377.462 151.412 377.462 151.066C377.462 149.318 392.32 145.822 392.32 145.822C392.32 145.822 388.031 144.382 386.202 142.326C385.219 141.221 405.43 136.208 405.43 136.208C408.847 134.105 412.296 131.113 415.87 128.012C416.241 127.69 416.614 127.367 416.987 127.044M382.281 152.048C386.615 152.058 391.446 152.814 391.446 152.814C391.446 152.814 386.325 152.494 382.281 152.048ZM135.356 43.561L140.008 42.7857C140.35 42.7288 140.6 42.433 140.6 42.0864V42.0864C140.6 41.5594 140.046 41.2166 139.574 41.4523L135.356 43.561ZM375.713 33.9467H371.202C370.797 33.9467 370.469 33.6189 370.469 33.2145V33.2145C370.469 32.7148 370.959 32.3619 371.433 32.5199L375.713 33.9467ZM473.471 255.747L473.05 256.756C472.336 258.471 474.436 259.969 475.825 258.734L476.808 257.861C477.576 257.178 478.185 256.334 478.59 255.389L479.007 254.415C479.581 253.075 478.227 251.721 476.887 252.295V252.295C475.343 252.957 474.117 254.195 473.471 255.747ZM427.558 300.248V300.248C429.336 298.47 432.218 298.47 433.996 300.248V300.248C434.61 300.862 434.554 301.873 433.876 302.416L433.798 302.479C432.032 303.892 429.523 303.892 427.757 302.479L427.678 302.416C427 301.873 426.944 300.862 427.558 300.248ZM75.9633 302.423V302.423C74.3046 303.418 72.2523 303.497 70.5222 302.632L70.3358 302.539C69.3965 302.069 69.3965 300.729 70.3359 300.259L70.5222 300.166C72.2524 299.301 74.3045 299.38 75.9632 300.375V300.375C76.7364 300.839 76.7364 301.959 75.9633 302.423ZM19.9844 280.304V280.304C19.9844 280.852 19.5402 281.296 18.9923 281.296H17.8783C15.5631 281.296 13.5873 279.623 13.2067 277.339V277.339C13.0944 276.665 13.6138 276.052 14.2967 276.052H15.7324C18.0807 276.052 19.9844 277.956 19.9844 280.304Z" stroke="black" stroke-width="1.48819"/>
</g>
<defs>
<filter id="filter0_d_453_14043" x="0.790039" y="0.255859" width="490.356" height="317.064" filterUnits="userSpaceOnUse" color-interpolation-filters="sRGB">
<feFlood flood-opacity="0" result="BackgroundImageFix"/>
<feColorMatrix in="SourceAlpha" type="matrix" values="0 0 0 0 0 0 0 0 0 0 0 0 0 0 0 0 0 0 127 0" result="hardAlpha"/>
<feOffset dy="4"/>
<feGaussianBlur stdDeviation="2"/>
<feComposite in2="hardAlpha" operator="out"/>
<feColorMatrix type="matrix" values="0 0 0 0 0 0 0 0 0 0 0 0 0 0 0 0 0 0 0.25 0"/>
<feBlend mode="normal" in2="BackgroundImageFix" result="effect1_dropShadow_453_14043"/>
<feBlend mode="normal" in="SourceGraphic" in2="effect1_dropShadow_453_14043" result="shape"/>
</filter>
</defs>
</svg>
